<svg xmlns="http://www.w3.org/2000/svg" xmlns:xlink="http://www.w3.org/1999/xlink" width="500" zoomAndPan="magnify" viewBox="0 0 375 374.999991" height="500" preserveAspectRatio="xMidYMid meet" version="1.0"><defs><clipPath id="371ccb4eb4"><path d="M 58.53125 162.027344 L 316.53125 162.027344 L 316.53125 213.027344 L 58.53125 213.027344 Z M 58.53125 162.027344 " clip-rule="nonzero"/></clipPath></defs><g clip-path="url(#371ccb4eb4)"><path fill="#000000" d="M 88.234375 186.78125 L 88.234375 195.273438 L 85.621094 195.273438 L 85.621094 187.050781 C 85.621094 184.742188 84.769531 182.804688 82.328125 182.804688 C 80.628906 182.804688 79.304688 183.996094 78.832031 185.386719 C 78.695312 185.726562 78.660156 186.136719 78.660156 186.644531 L 78.660156 195.273438 L 76.046875 195.273438 L 76.046875 174.3125 L 78.660156 174.3125 L 78.660156 183.246094 L 78.726562 183.246094 C 79.136719 182.5 79.78125 181.855469 80.59375 181.414062 C 81.375 180.972656 82.292969 180.664062 83.242188 180.664062 C 85.144531 180.664062 88.234375 181.855469 88.234375 186.78125 Z M 95.464844 176.894531 L 92.917969 177.574219 L 92.917969 181.003906 L 90.710938 181.003906 L 90.710938 182.976562 L 92.917969 182.976562 L 92.917969 190.757812 C 92.917969 192.453125 93.191406 193.710938 93.9375 194.492188 C 94.546875 195.207031 95.53125 195.582031 96.753906 195.582031 C 97.773438 195.582031 98.554688 195.445312 99.0625 195.242188 L 98.960938 193.304688 C 98.621094 193.40625 98.144531 193.472656 97.46875 193.472656 C 96.007812 193.472656 95.53125 192.453125 95.53125 190.6875 L 95.53125 182.976562 L 99.265625 182.976562 L 99.265625 181.003906 L 95.53125 181.003906 L 95.53125 176.894531 Z M 105.242188 176.894531 L 102.695312 177.574219 L 102.695312 181.003906 L 100.488281 181.003906 L 100.488281 182.976562 L 102.695312 182.976562 L 102.695312 190.757812 C 102.695312 192.453125 102.96875 193.710938 103.714844 194.492188 C 104.324219 195.207031 105.308594 195.582031 106.53125 195.582031 C 107.550781 195.582031 108.332031 195.445312 108.839844 195.242188 L 108.738281 193.304688 C 108.398438 193.40625 107.921875 193.472656 107.246094 193.472656 C 105.785156 193.472656 105.308594 192.453125 105.308594 190.6875 L 105.308594 182.976562 L 109.042969 182.976562 L 109.042969 181.003906 L 105.308594 181.003906 L 105.308594 176.894531 Z M 125.40625 187.9375 C 125.40625 193.066406 122.28125 195.613281 118.921875 195.613281 C 117.019531 195.613281 115.390625 194.800781 114.507812 193.371094 L 114.441406 193.371094 L 114.441406 201.152344 L 111.859375 201.152344 L 111.859375 185.695312 C 111.859375 183.859375 111.792969 182.398438 111.757812 181.039062 L 114.101562 181.039062 L 114.203125 183.484375 L 114.269531 183.484375 C 115.324219 181.753906 117.019531 180.699219 119.363281 180.699219 C 122.824219 180.699219 125.40625 183.621094 125.40625 187.96875 Z M 122.792969 188.039062 C 122.792969 185.183594 121.296875 182.738281 118.546875 182.738281 C 116.785156 182.738281 115.121094 183.996094 114.609375 185.964844 C 114.507812 186.304688 114.441406 186.679688 114.441406 187.019531 L 114.441406 189.464844 C 114.441406 189.839844 114.507812 190.210938 114.542969 190.519531 C 115.019531 192.320312 116.578125 193.578125 118.445312 193.578125 C 121.195312 193.578125 122.792969 191.332031 122.792969 188.039062 Z M 129.820312 181.480469 C 128.800781 181.480469 128.054688 182.261719 128.054688 183.347656 C 128.054688 184.367188 128.765625 185.183594 129.785156 185.183594 C 130.871094 185.183594 131.550781 184.402344 131.550781 183.347656 C 131.550781 182.261719 130.835938 181.480469 129.820312 181.480469 Z M 129.820312 191.910156 C 128.800781 191.910156 128.054688 192.691406 128.054688 193.78125 C 128.054688 194.800781 128.765625 195.613281 129.785156 195.613281 C 130.871094 195.613281 131.550781 194.832031 131.550781 193.78125 C 131.550781 192.691406 130.835938 191.910156 129.820312 191.910156 Z M 140.816406 175.058594 L 132.570312 196.464844 L 134.539062 196.464844 L 142.789062 175.058594 L 140.785156 175.058594 Z M 142.71875 196.464844 L 144.6875 196.464844 L 152.9375 175.058594 L 150.933594 175.058594 L 142.683594 196.464844 Z M 300.507812 200.542969 C 301.1875 201.222656 301.1875 202.273438 300.507812 202.953125 C 300.167969 203.292969 299.726562 203.464844 299.320312 203.464844 C 298.910156 203.464844 298.4375 203.292969 298.128906 202.953125 L 287.234375 192.046875 C 284.890625 193.847656 282.105469 194.800781 279.289062 194.800781 C 275.929688 194.800781 272.566406 193.507812 270.023438 190.960938 C 264.894531 185.828125 264.929688 177.503906 270.023438 172.410156 C 275.113281 167.277344 283.429688 167.277344 288.558594 172.410156 C 291.035156 174.890625 292.394531 178.183594 292.394531 181.683594 C 292.394531 184.605469 291.410156 187.359375 289.644531 189.636719 L 300.507812 200.507812 Z M 286.148438 188.582031 C 287.980469 186.746094 289 184.300781 289 181.71875 C 289 179.136719 287.980469 176.691406 286.148438 174.855469 C 282.378906 171.050781 276.199219 171.050781 272.398438 174.855469 C 268.597656 178.660156 268.597656 184.808594 272.398438 188.617188 C 276.199219 192.421875 282.34375 192.386719 286.148438 188.617188 Z M 316.53125 187.730469 C 316.53125 201.695312 305.15625 213.078125 291.203125 213.078125 L 83.855469 213.078125 C 69.902344 213.078125 58.53125 201.695312 58.53125 187.730469 C 58.53125 173.769531 69.902344 162.386719 83.855469 162.386719 L 291.203125 162.386719 C 305.15625 162.386719 316.53125 173.769531 316.53125 187.730469 Z M 313.136719 187.730469 C 313.136719 175.636719 303.289062 165.78125 291.203125 165.78125 L 259.769531 165.78125 L 259.769531 205.503906 L 256.375 205.503906 L 256.375 165.78125 L 83.855469 165.78125 C 71.769531 165.78125 61.925781 175.636719 61.925781 187.730469 C 61.925781 199.828125 71.769531 209.679688 83.855469 209.679688 L 291.203125 209.679688 C 303.289062 209.679688 313.136719 199.828125 313.136719 187.730469 Z M 313.136719 187.730469 " fill-opacity="1" fill-rule="nonzero"/></g></svg>