<svg xmlns="http://www.w3.org/2000/svg" xmlns:xlink="http://www.w3.org/1999/xlink" width="500" zoomAndPan="magnify" viewBox="0 0 375 374.999991" height="500" preserveAspectRatio="xMidYMid meet" version="1.0"><defs><g/></defs><g fill="#ff316f" fill-opacity="1"><g transform="translate(113.53343, 340.844428)"><g><path d="M 165.203125 -53.59375 C 165.203125 -43.726562 163.132812 -35.394531 159 -28.59375 C 154.863281 -21.800781 149.53125 -16.269531 143 -12 C 136.46875 -7.726562 129.066406 -4.660156 120.796875 -2.796875 C 112.535156 -0.929688 104.132812 0 95.59375 0 L 11.59375 0 C 17.726562 -1.601562 21.726562 -4.9375 23.59375 -10 C 25.46875 -15.0625 26.40625 -20.257812 26.40625 -25.59375 L 26.40625 -172.40625 C 26.40625 -177.46875 25.335938 -182.332031 23.203125 -187 C 21.066406 -191.664062 17.195312 -194.664062 11.59375 -196 L 65.203125 -196 C 59.335938 -194.664062 55.335938 -191.597656 53.203125 -186.796875 C 51.066406 -181.992188 50 -176.925781 50 -171.59375 L 50 -106.40625 L 84 -106.40625 C 92.800781 -106.40625 100.535156 -108.867188 107.203125 -113.796875 C 113.867188 -118.734375 119.398438 -124.929688 123.796875 -132.390625 C 128.203125 -139.859375 131.46875 -147.859375 133.59375 -156.390625 C 135.726562 -164.929688 136.796875 -172.9375 136.796875 -180.40625 C 136.796875 -193.195312 134.53125 -204.726562 130 -215 C 125.46875 -225.269531 119.265625 -234.003906 111.390625 -241.203125 C 103.523438 -248.398438 94.191406 -253.929688 83.390625 -257.796875 C 72.597656 -261.660156 60.9375 -263.59375 48.40625 -263.59375 C 30.53125 -263.59375 13.925781 -260.859375 -1.40625 -255.390625 C -16.738281 -249.929688 -30.003906 -242.132812 -41.203125 -232 C -52.398438 -221.863281 -61.195312 -209.460938 -67.59375 -194.796875 C -74 -180.128906 -77.203125 -163.597656 -77.203125 -145.203125 C -77.203125 -131.867188 -75.332031 -118.398438 -71.59375 -104.796875 C -67.863281 -91.203125 -62.195312 -78.867188 -54.59375 -67.796875 C -47 -56.734375 -37.597656 -47.734375 -26.390625 -40.796875 C -15.191406 -33.867188 -1.992188 -30.40625 13.203125 -30.40625 L 16.40625 -30.796875 L 17.59375 -30.796875 L 14.40625 -26.796875 C -0.257812 -26.796875 -14.125 -29.925781 -27.1875 -36.1875 C -40.257812 -42.457031 -51.796875 -50.859375 -61.796875 -61.390625 C -71.796875 -71.929688 -79.726562 -84 -85.59375 -97.59375 C -91.46875 -111.195312 -94.40625 -125.195312 -94.40625 -139.59375 C -94.40625 -160.664062 -90.671875 -179.132812 -83.203125 -195 C -75.734375 -210.863281 -65.597656 -224.195312 -52.796875 -235 C -39.992188 -245.800781 -24.925781 -253.929688 -7.59375 -259.390625 C 9.738281 -264.859375 28.269531 -267.59375 48 -267.59375 C 61.0625 -267.59375 74.257812 -265.726562 87.59375 -262 C 100.925781 -258.269531 112.925781 -252.671875 123.59375 -245.203125 C 134.257812 -237.734375 142.925781 -228.460938 149.59375 -217.390625 C 156.257812 -206.328125 159.59375 -193.460938 159.59375 -178.796875 C 159.59375 -161.203125 155.191406 -146.203125 146.390625 -133.796875 C 137.597656 -121.398438 125.066406 -112.132812 108.796875 -106 C 116.265625 -105.195312 123.398438 -103.59375 130.203125 -101.1875 C 137.003906 -98.789062 143.003906 -95.457031 148.203125 -91.1875 C 153.398438 -86.925781 157.53125 -81.726562 160.59375 -75.59375 C 163.664062 -69.46875 165.203125 -62.132812 165.203125 -53.59375 Z M 50 -3.203125 L 90 -3.203125 C 105.726562 -3.203125 117.789062 -7.734375 126.1875 -16.796875 C 134.59375 -25.867188 138.796875 -38.132812 138.796875 -53.59375 C 138.796875 -70.394531 133.992188 -82.863281 124.390625 -91 C 114.796875 -99.132812 101.863281 -103.203125 85.59375 -103.203125 L 50 -103.203125 Z M 50 -3.203125 "/></g></g></g><g fill="#ff316f" fill-opacity="1"><g transform="translate(77.541907, 300.258991)"><g><path d="M 50.40625 -24.40625 C 50.40625 -19.332031 51.40625 -14.394531 53.40625 -9.59375 C 55.40625 -4.800781 59.070312 -1.601562 64.40625 0 L 11.59375 0 C 17.46875 -1.601562 21.40625 -4.800781 23.40625 -9.59375 C 25.40625 -14.394531 26.40625 -19.460938 26.40625 -24.796875 L 26.40625 -204 C 19.195312 -204.269531 11.859375 -204.9375 4.390625 -206 C -3.066406 -207.0625 -10.394531 -208.726562 -17.59375 -211 C -24.800781 -213.269531 -31.738281 -216.203125 -38.40625 -219.796875 C -45.070312 -223.398438 -50.9375 -227.734375 -56 -232.796875 L -54.796875 -236.40625 C -43.867188 -226.269531 -32.132812 -219.203125 -19.59375 -215.203125 C -7.0625 -211.203125 6.535156 -209.203125 21.203125 -209.203125 C 34.796875 -209.203125 47.925781 -210.734375 60.59375 -213.796875 C 73.257812 -216.867188 85.992188 -220.40625 98.796875 -224.40625 L 120.40625 -231.203125 C 133.195312 -235.460938 145.992188 -239.125 158.796875 -242.1875 C 171.597656 -245.257812 184.800781 -246.796875 198.40625 -246.796875 C 215.195312 -246.796875 230.59375 -244.0625 244.59375 -238.59375 C 258.59375 -233.132812 271.0625 -223.738281 282 -210.40625 L 278.40625 -208.796875 C 274.40625 -214.660156 269.9375 -219.394531 265 -223 C 260.0625 -226.601562 254.660156 -229.40625 248.796875 -231.40625 C 242.929688 -233.40625 236.863281 -234.800781 230.59375 -235.59375 C 224.332031 -236.394531 217.867188 -236.796875 211.203125 -236.796875 C 197.335938 -236.796875 183.738281 -235.257812 170.40625 -232.1875 C 157.070312 -229.125 143.800781 -225.726562 130.59375 -222 C 117.394531 -218.269531 104.128906 -214.671875 90.796875 -211.203125 C 77.460938 -207.734375 64 -205.597656 50.40625 -204.796875 Z M 50.40625 -24.40625 "/></g></g></g></svg>