<svg xmlns="http://www.w3.org/2000/svg" xmlns:xlink="http://www.w3.org/1999/xlink" width="500" zoomAndPan="magnify" viewBox="0 0 375 374.999991" height="500" preserveAspectRatio="xMidYMid meet" version="1.0"><path fill="#ed0000" d="M 181.71875 157.347656 C 174 149.617188 163.332031 144.832031 151.546875 144.832031 C 139.769531 144.832031 129.101562 149.617188 121.378906 157.347656 C 113.660156 165.085938 108.886719 175.765625 108.886719 187.566406 C 108.886719 199.359375 113.660156 210.046875 121.378906 217.777344 C 129.101562 225.507812 139.769531 230.289062 151.546875 230.289062 C 163.332031 230.289062 174 225.507812 181.71875 217.777344 C 189.441406 210.046875 194.214844 199.359375 194.214844 187.566406 C 194.214844 175.765625 189.441406 165.085938 181.71875 157.347656 Z M 181.71875 157.347656 " fill-opacity="1" fill-rule="nonzero"/><path fill="#fefefe" d="M 168.738281 189.460938 L 143.390625 204.121094 C 142.695312 204.523438 141.898438 204.523438 141.199219 204.121094 C 140.503906 203.71875 140.101562 203.027344 140.101562 202.214844 L 140.101562 172.90625 C 140.101562 172.101562 140.503906 171.410156 141.199219 171.007812 C 141.898438 170.601562 142.695312 170.601562 143.390625 171.007812 L 168.738281 185.660156 C 169.4375 186.0625 169.832031 186.753906 169.832031 187.566406 C 169.832031 188.371094 169.4375 189.058594 168.738281 189.460938 Z M 168.738281 189.460938 " fill-opacity="1" fill-rule="evenodd"/><path fill="#ed0000" d="M 90.402344 225.699219 C 91.371094 227.371094 90.785156 229.515625 89.117188 230.480469 C 87.445312 231.441406 85.304688 230.863281 84.339844 229.191406 C 80.710938 222.890625 77.910156 216.132812 76.035156 209.113281 C 74.15625 202.089844 73.199219 194.835938 73.199219 187.566406 C 73.199219 180.292969 74.15625 173.042969 76.035156 166.015625 C 77.910156 158.988281 80.710938 152.238281 84.339844 145.941406 C 85.304688 144.269531 87.445312 143.691406 89.117188 144.648438 C 90.785156 145.609375 91.371094 147.761719 90.402344 149.433594 C 87.078125 155.203125 84.523438 161.394531 82.804688 167.828125 C 81.085938 174.261719 80.210938 180.90625 80.210938 187.566406 C 80.210938 194.222656 81.085938 200.867188 82.804688 207.300781 C 84.523438 213.734375 87.078125 219.929688 90.402344 225.699219 Z M 105.335938 217.058594 C 106.300781 218.734375 105.722656 220.878906 104.046875 221.839844 C 102.378906 222.804688 100.238281 222.21875 99.277344 220.550781 C 96.40625 215.5625 94.179688 210.207031 92.6875 204.640625 C 91.199219 199.078125 90.4375 193.328125 90.4375 187.566406 C 90.4375 181.800781 91.199219 176.054688 92.6875 170.480469 C 94.179688 164.914062 96.398438 159.554688 99.277344 154.558594 C 100.242188 152.886719 102.390625 152.316406 104.0625 153.285156 C 105.730469 154.257812 106.300781 156.402344 105.335938 158.078125 C 102.765625 162.539062 100.792969 167.320312 99.460938 172.300781 C 98.128906 177.273438 97.453125 182.410156 97.453125 187.566406 C 97.453125 192.714844 98.128906 197.851562 99.460938 202.828125 C 100.792969 207.808594 102.765625 212.597656 105.335938 217.058594 Z M 105.335938 217.058594 " fill-opacity="1" fill-rule="evenodd"/><path fill="#ed0000" d="M 227.199219 189.703125 C 227.199219 190.253906 227.175781 190.730469 227.128906 191.113281 C 227.085938 191.492188 227.007812 191.8125 226.925781 192.058594 C 226.824219 192.3125 226.710938 192.496094 226.570312 192.601562 C 226.429688 192.714844 226.269531 192.769531 226.085938 192.769531 L 209.5625 192.769531 C 208.957031 192.769531 208.441406 192.585938 208.019531 192.226562 C 207.605469 191.867188 207.394531 191.277344 207.394531 190.457031 L 207.394531 157.648438 C 207.394531 157.464844 207.449219 157.296875 207.574219 157.140625 C 207.695312 157 207.898438 156.875 208.175781 156.78125 C 208.449219 156.683594 208.828125 156.621094 209.308594 156.5625 C 209.78125 156.507812 210.371094 156.480469 211.078125 156.480469 C 211.800781 156.480469 212.402344 156.507812 212.867188 156.5625 C 213.324219 156.621094 213.703125 156.683594 213.976562 156.78125 C 214.253906 156.875 214.449219 157 214.578125 157.140625 C 214.695312 157.296875 214.761719 157.464844 214.761719 157.648438 L 214.761719 186.710938 L 226.085938 186.710938 C 226.269531 186.710938 226.4375 186.761719 226.570312 186.867188 C 226.710938 186.964844 226.824219 187.128906 226.925781 187.367188 C 227.015625 187.601562 227.085938 187.902344 227.128906 188.292969 C 227.175781 188.671875 227.199219 189.136719 227.199219 189.703125 Z M 238.890625 191.769531 C 238.890625 191.953125 238.835938 192.121094 238.707031 192.277344 C 238.582031 192.417969 238.382812 192.539062 238.109375 192.636719 C 237.835938 192.722656 237.453125 192.800781 236.996094 192.855469 C 236.53125 192.910156 235.933594 192.941406 235.207031 192.941406 C 234.503906 192.941406 233.910156 192.910156 233.4375 192.855469 C 232.960938 192.800781 232.578125 192.722656 232.304688 192.636719 C 232.03125 192.539062 231.832031 192.417969 231.707031 192.277344 C 231.578125 192.121094 231.523438 191.953125 231.523438 191.769531 L 231.523438 157.648438 C 231.523438 157.464844 231.578125 157.296875 231.707031 157.140625 C 231.832031 157 232.03125 156.875 232.328125 156.78125 C 232.609375 156.683594 232.980469 156.621094 233.445312 156.5625 C 233.910156 156.507812 234.503906 156.480469 235.207031 156.480469 C 235.933594 156.480469 236.53125 156.507812 236.996094 156.5625 C 237.453125 156.621094 237.835938 156.683594 238.109375 156.78125 C 238.382812 156.875 238.582031 157 238.707031 157.140625 C 238.835938 157.296875 238.890625 157.464844 238.890625 157.648438 Z M 264.703125 191.492188 C 264.605469 191.8125 264.492188 192.066406 264.34375 192.257812 C 264.191406 192.453125 263.949219 192.601562 263.621094 192.707031 C 263.289062 192.804688 262.832031 192.875 262.246094 192.90625 C 261.675781 192.933594 260.929688 192.941406 259.992188 192.941406 C 259.253906 192.941406 258.617188 192.941406 258.082031 192.933594 C 257.546875 192.925781 257.105469 192.890625 256.730469 192.855469 C 256.359375 192.820312 256.054688 192.765625 255.828125 192.691406 C 255.589844 192.617188 255.398438 192.523438 255.238281 192.410156 C 255.089844 192.304688 254.964844 192.15625 254.878906 192.007812 C 254.792969 191.847656 254.714844 191.648438 254.640625 191.410156 L 243.917969 159.386719 C 243.699219 158.707031 243.558594 158.179688 243.519531 157.789062 C 243.476562 157.402344 243.558594 157.105469 243.800781 156.902344 C 244.023438 156.710938 244.425781 156.589844 244.976562 156.542969 C 245.539062 156.492188 246.3125 156.480469 247.328125 156.480469 C 248.179688 156.480469 248.851562 156.492188 249.335938 156.535156 C 249.816406 156.570312 250.1875 156.640625 250.449219 156.726562 C 250.703125 156.816406 250.890625 156.964844 250.984375 157.140625 C 251.089844 157.332031 251.1875 157.566406 251.28125 157.847656 L 260.042969 185.710938 L 260.070312 185.710938 L 268.691406 157.980469 C 268.769531 157.664062 268.859375 157.410156 268.964844 157.21875 C 269.078125 157.023438 269.269531 156.867188 269.542969 156.753906 C 269.808594 156.648438 270.199219 156.570312 270.703125 156.535156 C 271.199219 156.492188 271.894531 156.480469 272.769531 156.480469 C 273.628906 156.480469 274.289062 156.507812 274.769531 156.5625 C 275.242188 156.621094 275.566406 156.753906 275.746094 156.964844 C 275.917969 157.183594 275.972656 157.488281 275.910156 157.875 C 275.855469 158.269531 275.699219 158.777344 275.480469 159.441406 Z M 301.835938 189.886719 C 301.835938 190.429688 301.816406 190.875 301.773438 191.246094 C 301.722656 191.605469 301.652344 191.902344 301.5625 192.121094 C 301.464844 192.355469 301.351562 192.511719 301.210938 192.617188 C 301.074219 192.722656 300.914062 192.769531 300.75 192.769531 L 282.664062 192.769531 C 282.050781 192.769531 281.539062 192.585938 281.121094 192.226562 C 280.699219 191.867188 280.496094 191.277344 280.496094 190.457031 L 280.496094 158.960938 C 280.496094 158.144531 280.699219 157.550781 281.121094 157.191406 C 281.539062 156.832031 282.050781 156.648438 282.664062 156.648438 L 300.667969 156.648438 C 300.828125 156.648438 300.984375 156.699219 301.109375 156.789062 C 301.238281 156.886719 301.351562 157.050781 301.449219 157.277344 C 301.535156 157.515625 301.609375 157.8125 301.652344 158.171875 C 301.703125 158.546875 301.722656 158.996094 301.722656 159.5625 C 301.722656 160.082031 301.703125 160.527344 301.652344 160.894531 C 301.609375 161.261719 301.539062 161.550781 301.449219 161.769531 C 301.351562 162 301.238281 162.164062 301.109375 162.269531 C 300.984375 162.375 300.828125 162.417969 300.667969 162.417969 L 287.800781 162.417969 L 287.800781 171.222656 L 298.636719 171.222656 C 298.816406 171.222656 298.960938 171.269531 299.097656 171.375 C 299.238281 171.480469 299.355469 171.628906 299.449219 171.847656 C 299.546875 172.0625 299.609375 172.351562 299.660156 172.714844 C 299.710938 173.078125 299.722656 173.519531 299.722656 174.035156 C 299.722656 174.578125 299.710938 175.023438 299.660156 175.375 C 299.609375 175.730469 299.546875 176.011719 299.449219 176.222656 C 299.355469 176.441406 299.238281 176.597656 299.097656 176.679688 C 298.960938 176.773438 298.816406 176.820312 298.636719 176.820312 L 287.800781 176.820312 L 287.800781 187 L 300.75 187 C 300.921875 187 301.074219 187.042969 301.210938 187.148438 C 301.351562 187.253906 301.464844 187.417969 301.5625 187.644531 C 301.652344 187.863281 301.722656 188.15625 301.773438 188.523438 C 301.816406 188.890625 301.835938 189.34375 301.835938 189.886719 Z M 301.835938 189.886719 " fill-opacity="1" fill-rule="nonzero"/><path fill="#ed0000" d="M 218.15625 213.714844 C 218.15625 214.53125 218 215.246094 217.699219 215.863281 C 217.394531 216.480469 216.984375 216.992188 216.464844 217.410156 C 215.9375 217.820312 215.332031 218.128906 214.640625 218.339844 C 213.941406 218.546875 213.195312 218.652344 212.402344 218.652344 C 211.867188 218.652344 211.371094 218.601562 210.90625 218.515625 C 210.449219 218.425781 210.042969 218.320312 209.6875 218.191406 C 209.335938 218.066406 209.042969 217.9375 208.808594 217.796875 C 208.570312 217.65625 208.398438 217.535156 208.292969 217.429688 C 208.1875 217.324219 208.117188 217.175781 208.070312 216.980469 C 208.027344 216.78125 208.003906 216.5 208.003906 216.132812 C 208.003906 215.878906 208.011719 215.675781 208.035156 215.503906 C 208.046875 215.34375 208.070312 215.203125 208.113281 215.097656 C 208.148438 214.996094 208.195312 214.921875 208.253906 214.878906 C 208.316406 214.835938 208.386719 214.8125 208.464844 214.8125 C 208.578125 214.8125 208.738281 214.878906 208.941406 215.011719 C 209.148438 215.144531 209.40625 215.292969 209.722656 215.449219 C 210.046875 215.609375 210.429688 215.757812 210.878906 215.886719 C 211.324219 216.027344 211.835938 216.089844 212.421875 216.089844 C 212.808594 216.089844 213.148438 216.046875 213.449219 215.957031 C 213.761719 215.859375 214.019531 215.730469 214.230469 215.570312 C 214.441406 215.398438 214.605469 215.195312 214.71875 214.949219 C 214.832031 214.703125 214.886719 214.425781 214.886719 214.121094 C 214.886719 213.769531 214.796875 213.46875 214.597656 213.214844 C 214.40625 212.960938 214.160156 212.742188 213.84375 212.542969 C 213.542969 212.34375 213.191406 212.160156 212.796875 211.992188 C 212.40625 211.816406 212 211.640625 211.582031 211.441406 C 211.160156 211.253906 210.757812 211.035156 210.371094 210.785156 C 209.976562 210.546875 209.625 210.257812 209.316406 209.910156 C 209.007812 209.574219 208.757812 209.171875 208.5625 208.707031 C 208.371094 208.238281 208.28125 207.683594 208.28125 207.035156 C 208.28125 206.292969 208.414062 205.636719 208.6875 205.074219 C 208.964844 204.507812 209.335938 204.042969 209.800781 203.667969 C 210.273438 203.296875 210.824219 203.011719 211.457031 202.828125 C 212.089844 202.644531 212.765625 202.554688 213.484375 202.554688 C 213.84375 202.554688 214.21875 202.582031 214.585938 202.640625 C 214.949219 202.695312 215.296875 202.773438 215.621094 202.863281 C 215.9375 202.964844 216.21875 203.078125 216.464844 203.1875 C 216.710938 203.316406 216.878906 203.414062 216.957031 203.492188 C 217.035156 203.570312 217.089844 203.640625 217.121094 203.699219 C 217.148438 203.753906 217.167969 203.824219 217.191406 203.921875 C 217.210938 204.015625 217.226562 204.128906 217.234375 204.269531 C 217.238281 204.410156 217.246094 204.578125 217.246094 204.789062 C 217.246094 205.023438 217.238281 205.222656 217.234375 205.375 C 217.21875 205.539062 217.195312 205.671875 217.167969 205.777344 C 217.140625 205.875 217.097656 205.953125 217.050781 206.003906 C 216.992188 206.054688 216.929688 206.074219 216.839844 206.074219 C 216.753906 206.074219 216.613281 206.019531 216.414062 205.90625 C 216.226562 205.800781 215.984375 205.671875 215.710938 205.539062 C 215.429688 205.40625 215.105469 205.285156 214.738281 205.179688 C 214.367188 205.074219 213.964844 205.015625 213.519531 205.015625 C 213.183594 205.015625 212.878906 205.058594 212.617188 205.144531 C 212.367188 205.226562 212.152344 205.347656 211.984375 205.496094 C 211.808594 205.636719 211.683594 205.8125 211.597656 206.023438 C 211.511719 206.238281 211.472656 206.457031 211.472656 206.6875 C 211.472656 207.035156 211.5625 207.328125 211.753906 207.582031 C 211.941406 207.839844 212.195312 208.0625 212.511719 208.253906 C 212.832031 208.453125 213.191406 208.636719 213.589844 208.804688 C 213.984375 208.980469 214.394531 209.164062 214.816406 209.355469 C 215.230469 209.546875 215.640625 209.761719 216.035156 210.011719 C 216.4375 210.257812 216.796875 210.546875 217.113281 210.886719 C 217.421875 211.222656 217.675781 211.625 217.867188 212.089844 C 218.0625 212.550781 218.15625 213.085938 218.15625 213.714844 Z M 232.683594 204.121094 C 232.683594 204.351562 232.679688 204.550781 232.65625 204.71875 C 232.636719 204.882812 232.609375 205.015625 232.566406 205.113281 C 232.523438 205.222656 232.472656 205.292969 232.410156 205.332031 C 232.355469 205.382812 232.285156 205.410156 232.214844 205.410156 L 228.332031 205.410156 L 228.332031 217.945312 C 228.332031 218.023438 228.3125 218.101562 228.253906 218.164062 C 228.207031 218.226562 228.113281 218.285156 228 218.320312 C 227.882812 218.363281 227.710938 218.390625 227.507812 218.417969 C 227.304688 218.441406 227.050781 218.453125 226.746094 218.453125 C 226.445312 218.453125 226.191406 218.441406 225.988281 218.417969 C 225.78125 218.390625 225.621094 218.363281 225.5 218.320312 C 225.382812 218.285156 225.296875 218.226562 225.242188 218.164062 C 225.191406 218.101562 225.164062 218.023438 225.164062 217.945312 L 225.164062 205.410156 L 221.28125 205.410156 C 221.203125 205.410156 221.132812 205.382812 221.078125 205.332031 C 221.023438 205.292969 220.972656 205.222656 220.929688 205.113281 C 220.894531 205.015625 220.867188 204.882812 220.84375 204.71875 C 220.824219 204.550781 220.816406 204.351562 220.816406 204.121094 C 220.816406 203.886719 220.824219 203.683594 220.84375 203.515625 C 220.867188 203.34375 220.894531 203.210938 220.929688 203.113281 C 220.972656 203.007812 221.023438 202.933594 221.078125 202.894531 C 221.132812 202.84375 221.203125 202.828125 221.28125 202.828125 L 232.214844 202.828125 C 232.285156 202.828125 232.355469 202.84375 232.410156 202.894531 C 232.472656 202.933594 232.523438 203.007812 232.566406 203.113281 C 232.609375 203.210938 232.636719 203.34375 232.65625 203.515625 C 232.679688 203.683594 232.683594 203.886719 232.683594 204.121094 Z M 248.101562 217.972656 C 248.101562 218.058594 248.089844 218.136719 248.054688 218.191406 C 248.019531 218.257812 247.949219 218.304688 247.828125 218.347656 C 247.707031 218.382812 247.53125 218.410156 247.300781 218.425781 C 247.066406 218.445312 246.75 218.453125 246.355469 218.453125 C 246.019531 218.453125 245.75 218.445312 245.554688 218.425781 C 245.347656 218.410156 245.195312 218.382812 245.074219 218.339844 C 244.960938 218.292969 244.878906 218.242188 244.828125 218.171875 C 244.785156 218.101562 244.742188 218.015625 244.714844 217.925781 L 243.3125 214.441406 C 243.144531 214.046875 242.984375 213.691406 242.820312 213.390625 C 242.660156 213.085938 242.484375 212.832031 242.285156 212.628906 C 242.089844 212.421875 241.855469 212.269531 241.601562 212.160156 C 241.347656 212.054688 241.046875 212.007812 240.714844 212.007812 L 239.722656 212.007812 L 239.722656 217.945312 C 239.722656 218.023438 239.699219 218.101562 239.644531 218.164062 C 239.59375 218.226562 239.511719 218.285156 239.390625 218.320312 C 239.269531 218.363281 239.109375 218.390625 238.910156 218.417969 C 238.714844 218.441406 238.453125 218.453125 238.152344 218.453125 C 237.847656 218.453125 237.585938 218.441406 237.382812 218.417969 C 237.179688 218.390625 237.023438 218.363281 236.90625 218.320312 C 236.785156 218.285156 236.699219 218.226562 236.652344 218.164062 C 236.601562 218.101562 236.582031 218.023438 236.582031 217.945312 L 236.582031 203.824219 C 236.582031 203.472656 236.671875 203.21875 236.847656 203.0625 C 237.03125 202.90625 237.25 202.828125 237.511719 202.828125 L 241.53125 202.828125 C 241.941406 202.828125 242.277344 202.835938 242.539062 202.851562 C 242.804688 202.863281 243.046875 202.886719 243.265625 202.90625 C 243.882812 203 244.449219 203.152344 244.949219 203.367188 C 245.449219 203.585938 245.871094 203.867188 246.222656 204.210938 C 246.566406 204.566406 246.835938 204.972656 247.019531 205.445312 C 247.203125 205.925781 247.292969 206.46875 247.292969 207.089844 C 247.292969 207.605469 247.230469 208.078125 247.097656 208.507812 C 246.960938 208.9375 246.765625 209.320312 246.511719 209.65625 C 246.257812 209.988281 245.941406 210.285156 245.566406 210.53125 C 245.1875 210.78125 244.757812 210.976562 244.277344 211.132812 C 244.511719 211.246094 244.730469 211.378906 244.933594 211.542969 C 245.136719 211.695312 245.328125 211.894531 245.511719 212.125 C 245.695312 212.351562 245.863281 212.613281 246.023438 212.910156 C 246.179688 213.199219 246.335938 213.53125 246.488281 213.898438 L 247.808594 216.972656 C 247.921875 217.277344 248.003906 217.496094 248.039062 217.644531 C 248.082031 217.785156 248.101562 217.890625 248.101562 217.972656 Z M 244.023438 207.414062 C 244.023438 206.898438 243.914062 206.460938 243.679688 206.117188 C 243.441406 205.765625 243.058594 205.511719 242.53125 205.367188 C 242.375 205.328125 242.195312 205.296875 241.988281 205.277344 C 241.785156 205.25 241.503906 205.234375 241.144531 205.234375 L 239.722656 205.234375 L 239.722656 209.644531 L 241.335938 209.644531 C 241.785156 209.644531 242.171875 209.585938 242.511719 209.480469 C 242.847656 209.375 243.128906 209.21875 243.355469 209.023438 C 243.582031 208.832031 243.742188 208.59375 243.855469 208.324219 C 243.96875 208.050781 244.023438 207.746094 244.023438 207.414062 Z M 261.65625 217.136719 C 261.65625 217.367188 261.648438 217.566406 261.625 217.71875 C 261.605469 217.882812 261.578125 218.007812 261.535156 218.101562 C 261.492188 218.199219 261.441406 218.269531 261.378906 218.3125 C 261.324219 218.363281 261.253906 218.375 261.183594 218.375 L 253.394531 218.375 C 253.132812 218.375 252.914062 218.296875 252.730469 218.144531 C 252.554688 217.988281 252.460938 217.734375 252.460938 217.382812 L 252.460938 203.824219 C 252.460938 203.472656 252.554688 203.21875 252.730469 203.0625 C 252.914062 202.90625 253.132812 202.828125 253.394531 202.828125 L 261.148438 202.828125 C 261.21875 202.828125 261.28125 202.84375 261.34375 202.886719 C 261.394531 202.929688 261.441406 203 261.484375 203.097656 C 261.519531 203.195312 261.554688 203.332031 261.578125 203.484375 C 261.597656 203.640625 261.605469 203.839844 261.605469 204.085938 C 261.605469 204.3125 261.597656 204.496094 261.578125 204.65625 C 261.554688 204.8125 261.527344 204.9375 261.484375 205.03125 C 261.441406 205.128906 261.394531 205.199219 261.34375 205.25 C 261.28125 205.292969 261.21875 205.3125 261.148438 205.3125 L 255.609375 205.3125 L 255.609375 209.101562 L 260.273438 209.101562 C 260.351562 209.101562 260.414062 209.121094 260.472656 209.171875 C 260.535156 209.214844 260.582031 209.277344 260.625 209.375 C 260.667969 209.460938 260.695312 209.585938 260.71875 209.742188 C 260.738281 209.90625 260.746094 210.089844 260.746094 210.3125 C 260.746094 210.546875 260.738281 210.738281 260.71875 210.890625 C 260.695312 211.039062 260.667969 211.167969 260.625 211.25 C 260.582031 211.351562 260.535156 211.414062 260.472656 211.449219 C 260.414062 211.492188 260.351562 211.511719 260.273438 211.511719 L 255.609375 211.511719 L 255.609375 215.894531 L 261.183594 215.894531 C 261.261719 215.894531 261.324219 215.914062 261.378906 215.957031 C 261.441406 216.007812 261.492188 216.078125 261.535156 216.175781 C 261.578125 216.265625 261.605469 216.394531 261.625 216.550781 C 261.648438 216.710938 261.65625 216.902344 261.65625 217.136719 Z M 278.917969 217.207031 C 279.007812 217.488281 279.074219 217.71875 279.09375 217.890625 C 279.121094 218.058594 279.085938 218.1875 279 218.269531 C 278.910156 218.347656 278.753906 218.40625 278.53125 218.425781 C 278.3125 218.445312 278 218.453125 277.605469 218.453125 C 277.199219 218.453125 276.882812 218.445312 276.65625 218.441406 C 276.425781 218.425781 276.253906 218.398438 276.128906 218.363281 C 276.015625 218.328125 275.929688 218.277344 275.882812 218.214844 C 275.832031 218.152344 275.789062 218.066406 275.761719 217.960938 L 274.742188 214.835938 L 268.886719 214.835938 L 267.910156 217.875 C 267.875 217.988281 267.832031 218.085938 267.78125 218.15625 C 267.734375 218.234375 267.648438 218.292969 267.527344 218.339844 C 267.414062 218.382812 267.253906 218.410156 267.042969 218.425781 C 266.824219 218.445312 266.550781 218.453125 266.203125 218.453125 C 265.839844 218.453125 265.550781 218.441406 265.339844 218.417969 C 265.132812 218.390625 264.984375 218.335938 264.910156 218.242188 C 264.832031 218.152344 264.800781 218.015625 264.824219 217.847656 C 264.84375 217.683594 264.910156 217.460938 265.007812 217.175781 L 269.789062 203.371094 C 269.832031 203.238281 269.886719 203.132812 269.957031 203.046875 C 270.015625 202.964844 270.121094 202.898438 270.261719 202.859375 C 270.402344 202.808594 270.59375 202.78125 270.847656 202.765625 C 271.09375 202.757812 271.417969 202.753906 271.824219 202.753906 C 272.296875 202.753906 272.675781 202.757812 272.953125 202.765625 C 273.234375 202.78125 273.453125 202.808594 273.605469 202.859375 C 273.761719 202.898438 273.875 202.964844 273.945312 203.054688 C 274.007812 203.140625 274.070312 203.261719 274.113281 203.414062 Z M 271.789062 205.785156 L 271.777344 205.785156 L 269.613281 212.402344 L 273.972656 212.402344 Z M 301.222656 217.945312 C 301.222656 218.023438 301.203125 218.101562 301.160156 218.164062 C 301.109375 218.226562 301.035156 218.285156 300.921875 218.320312 C 300.800781 218.363281 300.644531 218.390625 300.457031 218.417969 C 300.265625 218.441406 300.019531 218.453125 299.722656 218.453125 C 299.433594 218.453125 299.1875 218.441406 298.996094 218.417969 C 298.808594 218.390625 298.652344 218.363281 298.539062 218.320312 C 298.425781 218.285156 298.34375 218.226562 298.300781 218.164062 C 298.25 218.101562 298.230469 218.023438 298.230469 217.945312 L 298.230469 205.285156 L 298.203125 205.285156 L 293.714844 217.9375 C 293.6875 218.039062 293.636719 218.121094 293.558594 218.191406 C 293.488281 218.261719 293.390625 218.320312 293.265625 218.363281 C 293.144531 218.398438 292.984375 218.425781 292.800781 218.441406 C 292.601562 218.445312 292.371094 218.453125 292.101562 218.453125 C 291.828125 218.453125 291.59375 218.445312 291.40625 218.425781 C 291.214844 218.40625 291.054688 218.371094 290.925781 218.328125 C 290.804688 218.285156 290.707031 218.226562 290.636719 218.164062 C 290.566406 218.101562 290.519531 218.023438 290.488281 217.9375 L 286.164062 205.285156 L 286.136719 205.285156 L 286.136719 217.945312 C 286.136719 218.023438 286.117188 218.101562 286.074219 218.164062 C 286.023438 218.226562 285.945312 218.285156 285.828125 218.320312 C 285.699219 218.363281 285.546875 218.390625 285.363281 218.417969 C 285.171875 218.441406 284.933594 218.453125 284.636719 218.453125 C 284.339844 218.453125 284.101562 218.441406 283.910156 218.417969 C 283.714844 218.390625 283.558594 218.363281 283.445312 218.320312 C 283.332031 218.285156 283.25 218.226562 283.207031 218.164062 C 283.15625 218.101562 283.136719 218.023438 283.136719 217.945312 L 283.136719 204.09375 C 283.136719 203.683594 283.25 203.367188 283.460938 203.152344 C 283.679688 202.933594 283.96875 202.828125 284.332031 202.828125 L 286.398438 202.828125 C 286.761719 202.828125 287.082031 202.859375 287.347656 202.914062 C 287.609375 202.976562 287.839844 203.078125 288.03125 203.21875 C 288.222656 203.359375 288.382812 203.542969 288.511719 203.769531 C 288.636719 204 288.757812 204.28125 288.847656 204.621094 L 292.195312 213.882812 L 292.242188 213.882812 L 295.707031 204.640625 C 295.808594 204.304688 295.925781 204.023438 296.046875 203.789062 C 296.171875 203.554688 296.320312 203.367188 296.484375 203.226562 C 296.644531 203.082031 296.84375 202.976562 297.0625 202.914062 C 297.285156 202.859375 297.554688 202.828125 297.84375 202.828125 L 299.976562 202.828125 C 300.195312 202.828125 300.378906 202.859375 300.535156 202.914062 C 300.6875 202.964844 300.820312 203.046875 300.921875 203.160156 C 301.019531 203.265625 301.097656 203.394531 301.144531 203.554688 C 301.203125 203.710938 301.222656 203.886719 301.222656 204.09375 Z M 301.222656 217.945312 " fill-opacity="1" fill-rule="nonzero"/></svg>